<svg xmlns="http://www.w3.org/2000/svg" width="3000" height="2000">
  <defs>
    <style>
      .cls-0 {
      fill: transparent; } .cls-1, .cls-2, .cls-3 { fill-rule: evenodd; } .cls-1 { fill: url(#linear-gradient); } .cls-2 { fill: url(#linear-gradient-2); } .cls-3 { fill: url(#linear-gradient-3); }
    </style>
    <linearGradient id="linear-gradient" x1="-4.4" y1="1129.9" x2="3021.8" y2="1129.9" gradientUnits="userSpaceOnUse">
      <!-- <stop offset="0" stop-color="#163"/> -->
      <stop offset="0" stop-color="#95bba4"/>
      <stop offset="1" stop-color="#609977"/>
    </linearGradient>
    <linearGradient id="linear-gradient-2" x1="-3.7" y1="1161" x2="3017.2" y2="1161" gradientUnits="userSpaceOnUse">
      <!-- <stop offset="0" stop-color="#a62"/> -->
      <stop offset="0" stop-color="#d9bb9d"/>
      <stop offset="1" stop-color="#c6996b"/>
    </linearGradient>
    <linearGradient id="linear-gradient-3" x1="-3.7" y1="1333" x2="3004" y2="1333" gradientUnits="userSpaceOnUse">
      <!-- <stop offset="0" stop-color="#a95"/> -->
      <stop offset="0" stop-color="#d9d2b3"/>
      <!-- <stop offset="1" stop-color="#c6bb8d"/> -->
      <stop offset="1" stop-color="#ccc299"/>
    </linearGradient>
  </defs>
  <path class="cls-0" d="M-41-36h3093v2074H-41z"/>
  <path id="Gradient_Fill_1" data-name="Gradient Fill 1" class="cls-1" d="M2999 253c52-182.5-1 1750-1 1750l-2999-3c.8-.6-8 41.4 0 2 442-702.4 761-394 1025-369 469.4 44.6 404.8-316.2 651-324 314.1-10 229.4-173.1 513-389 370-281.7 666.7-160.1 811-667z"/>
  <path id="Gradient_Fill_2" data-name="Gradient Fill 2" class="cls-2" d="M2748 793c174.2-79 217.7-314.3 252-474 39.9-185.5-2 1684-2 1684l-2999-3c.8-.6-7 37.4 1-2 369.4-311 489.9-305.6 858-221 431.3 99 397.5-129.4 632.8-160.4C2005 1549 1729.5 1467.8 2177 1261c344.8-159.3 102-255.2 571-468z"/>
  <path id="Gradient_Fill_3" data-name="Gradient Fill 3" class="cls-3" d="M0 2000c538-290.4 676-154.9 925-93 404.4 100.5 287-99.3 521-144 191-36.4 370 79.7 605-169 164.3-173.8 308.4-37.4 409-176 100.4-138.3 5.2-307.8 219-383 291.8-102.7 316.5-242.3 322-370 8.1-189.6-3 1338-3 1338l-2999-3c.8-.6-7 39.4 1 0z"/>
</svg>
