<!-- <?xml version="1.0" encoding="UTF-8"?> -->
<!-- <!DOCTYPE svg PUBLIC "-//W3C//DTD SVG 1.1//EN" "http://www.w3.org/Graphics/SVG/1.1/DTD/svg11.dtd"> -->
<!-- Creator: CorelDRAW 2017 -->
<svg xmlns="http://www.w3.org/2000/svg" xml:space="preserve" width="1016px" height="1048px" version="1.1" style="shape-rendering:geometricPrecision; text-rendering:geometricPrecision; image-rendering:optimizeQuality; fill-rule:evenodd; clip-rule:evenodd"
viewbox="0 0 904.08 932.56"
 xmlns:xlink="http://www.w3.org/1999/xlink">
 <defs>
  <style type="text/css">
   <![CDATA[
    .str0 {stroke:#116633;stroke-width:21.03;stroke-miterlimit:22.9256}
    .str1 {stroke:#888877;stroke-width:21.03;stroke-miterlimit:22.9256}
    .str3 {stroke:#AA6622;stroke-width:21.03;stroke-miterlimit:22.9256}
    .str2 {stroke:#AA9955;stroke-width:21.03;stroke-miterlimit:22.9256}
    .fil2 {fill:none}
    .fil0 {fill:#116633}
    .fil3 {fill:#888877}
    .fil5 {fill:#AA6622}
    .fil4 {fill:#AA9955}
    .fil1 {fill:#F8FCFD}
   ]]>
  </style>
 </defs>
 <g id="Layer_x0020_1">
  <metadata id="CorelCorpID_0Corel-Layer"/>
  <g id="_2096600564640">
   <g>
    <g>
     <path id="Green_x0020_Leaf" class="fil0" d="M10.51 79.29l0 295.08c0,35.93 33.39,68.78 71.54,68.78l269.43 0c38.72,0 71.54,-35.3 71.54,-62.12l0 -308.39c0,-27.83 -33.82,-62.13 -73.92,-62.13l-264.67 0c-38.44,0 -73.92,33.02 -73.92,68.78zm224.31 205.48c10.91,4.83 23.68,11.99 41.99,14.96 -23.42,-23.83 -29.58,-41.77 -36.87,-49.41l-5.12 34.45 0 0zm43.82 -15.67c0.45,-23.25 -2.42,-82.41 5.62,-98.93 15.06,5.59 10.32,29.33 10.56,44.46 0.28,18.19 0.8,36.48 0.67,54.68 28.96,-5.16 37.65,-53.4 28.66,-89.03 -5.33,-21.08 -29.68,-77.06 -41.81,-87.65 -24.11,22.86 -46.22,92.65 -28.58,139.78 4.04,10.81 16.3,33.29 24.88,36.69zm-70.35 23.06c-14.16,-8.22 -19.79,0.1 -63.56,-24.93 -7.59,-4.33 -13.75,-5.86 -11.71,-16.08 16.83,-9.03 38.74,17.37 80.54,23.76 5.01,-64.3 -82.89,-78.09 -146.88,-79.57 8.55,34.27 28.77,62.67 48.42,81.7 24.6,23.8 53.26,35.52 93.19,15.12zm-32.31 48.59c14.65,-10.25 24.32,-14.79 37.36,-20.65 -89.75,6.96 -106.95,-8.27 -142.61,-64.55 -7.28,-11.49 -9.47,-13.22 -21.12,-35.71 -34.99,-67.52 96.57,-29.02 129.99,-20.45 23.94,6.13 31.77,11.3 50.9,18.53 -6.49,-50.57 25.16,-154.31 54.22,-149.79 25.15,11.44 55.13,96.86 66.75,128.67 43.91,120.21 -3.07,90.88 -56.17,107.37 20.43,8.39 40.58,15.98 61.01,24.36 15.22,6.25 30.33,12.72 45.51,18.99 2.79,1.15 7.13,4.5 8.25,7.58 3.6,9.9 -6.61,6.09 -11.82,4.88 -16.12,-3.77 -33.66,-10.88 -49.78,-16.12 -15.49,-5.02 -31.73,-10.41 -47.22,-15.44 -5.08,15.03 1.69,38.07 1.89,58.88 0.13,13.62 0.52,31.84 -29.59,45.25 -16.12,3.13 -13.36,-2.94 -9.99,-6.7 9.64,-10.77 15.23,-24.71 16.95,-36.54 0.81,-5.62 1.56,-23.14 0.44,-33.79 -0.51,-4.84 -1.04,-14.89 -1.59,-16.61 -49.96,48.96 -66.41,63.33 -67.91,53.23 -1.51,-10.11 27.67,-38.95 51.75,-64.85 -28.77,-5.05 -55.02,11.02 -67.91,21.22 -3.11,2.46 -18.27,13.98 -26.68,26.27 -23.07,33.72 -9.06,47.66 -22.39,54.64 -11.07,5.81 -29.9,-46.91 29.76,-88.67z"/>
    </g>
    <g>
     <g>
      <path id="Green_x0020_Leaf_0" class="fil1" d="M234.82 284.77c10.91,4.83 23.68,11.99 41.99,14.96 -23.42,-23.83 -29.58,-41.77 -36.87,-49.41l-5.12 34.45 0 0zm43.82 -15.67c0.45,-23.25 -2.42,-82.41 5.62,-98.93 15.06,5.59 10.32,29.33 10.56,44.46 0.28,18.19 0.8,36.48 0.67,54.68 28.96,-5.16 37.65,-53.4 28.66,-89.03 -5.33,-21.08 -29.68,-77.06 -41.81,-87.65 -24.11,22.86 -46.22,92.65 -28.58,139.78 4.04,10.81 16.3,33.29 24.88,36.69zm-70.35 23.06c-14.16,-8.22 -19.79,0.1 -63.56,-24.93 -7.59,-4.33 -13.75,-5.86 -11.71,-16.08 16.83,-9.03 38.74,17.37 80.54,23.76 5.01,-64.3 -82.89,-78.09 -146.88,-79.57 8.55,34.27 28.77,62.67 48.42,81.7 24.6,23.8 53.26,35.52 93.19,15.12zm-32.31 48.59c14.65,-10.25 24.32,-14.79 37.36,-20.65 -89.75,6.96 -106.95,-8.27 -142.61,-64.55 -7.28,-11.49 -9.47,-13.22 -21.12,-35.71 -34.99,-67.52 96.57,-29.02 129.99,-20.45 23.94,6.13 31.77,11.3 50.9,18.53 -6.49,-50.57 25.16,-154.31 54.22,-149.79 25.15,11.44 55.13,96.86 66.75,128.67 43.91,120.21 -3.07,90.88 -56.17,107.37 20.43,8.39 40.58,15.98 61.01,24.36 15.22,6.25 30.33,12.72 45.51,18.99 2.79,1.15 7.13,4.5 8.25,7.58 3.6,9.9 -6.61,6.09 -11.82,4.88 -16.12,-3.77 -33.66,-10.88 -49.78,-16.12 -15.49,-5.02 -31.73,-10.41 -47.22,-15.44 -5.08,15.03 1.69,38.07 1.89,58.88 0.13,13.62 0.52,31.84 -29.59,45.25 -16.12,3.13 -13.36,-2.94 -9.99,-6.7 9.64,-10.77 15.23,-24.71 16.95,-36.54 0.81,-5.62 1.56,-23.14 0.44,-33.79 -0.51,-4.84 -1.04,-14.89 -1.59,-16.61 -49.96,48.96 -66.41,63.33 -67.91,53.23 -1.51,-10.11 27.67,-38.95 51.75,-64.85 -28.77,-5.05 -55.02,11.02 -67.91,21.22 -3.11,2.46 -18.27,13.98 -26.68,26.27 -23.07,33.72 -9.06,47.66 -22.39,54.64 -11.07,5.81 -29.9,-46.91 29.76,-88.67z"/>
     </g>
     <path class="fil2 str0" d="M84.43 10.51l264.67 0c40.1,0 73.92,34.3 73.92,62.13l0 308.39c0,26.82 -32.82,62.12 -71.54,62.12l-269.43 0c-38.15,0 -71.54,-32.85 -71.54,-68.78l0 -295.08c0,-35.76 35.48,-68.78 73.92,-68.78z"/>
    </g>
   </g>
   <g>
    <path id="Gray_x0020_Road" class="fil3" d="M528.33 394.69c-3.29,-16.75 18.53,-40.31 33.88,-31.31 17.64,10.34 -10.56,33.16 -33.88,31.31zm61.39 -68.53c22.79,-11.63 28.97,14.13 -0.13,27.32 -10.75,4.88 -21.68,6.01 -17.57,-9.28 2.72,-10.08 10.31,-14.27 17.7,-18.04zm51.62 -36.39c22.79,-9.84 28.31,15.5 -0.81,26.79 -29.92,11.6 -18.22,-18.58 0.81,-26.79zm33.29 -0.09c-2.61,-17.84 23.83,-39.17 36.18,-27.06 13.68,13.41 -17,31.17 -36.18,27.06zm54.41 -24.32c-5.07,-14.48 18.1,-31.39 37.13,-25.32 9.12,20.2 -22.15,31.58 -37.13,25.32zm94.47 -36.67c3.34,13.23 -1.1,16.53 -11.89,20.6 -7.66,2.89 -23.72,7.27 -28.3,-0.53 -5.09,-8.67 17.61,-30.17 40.19,-20.07zm16.55 11.29c1.11,-6.35 5.57,-13.9 12.93,-18.18 9.09,-5.27 25.65,-2.42 22.46,8.61 -3,6.12 -9.35,11.07 -18.79,13.74 -2.97,0.84 -12.28,0.18 -16.6,-4.17zm-359 -160.69l0 295.08c0,35.93 33.38,68.78 71.53,68.78l269.44 0c19.91,0 40.72,-10.34 51.54,-23.04 11.75,-13.81 19.99,-28.67 19.99,-52.4l0 -281.76c0,-42.74 -35.21,-75.44 -73.91,-75.44l-264.67 0c-38.44,0 -73.92,33.02 -73.92,68.78zm381.7 109.67c10.7,-0.47 24.55,-6.92 16.08,-14.03 -4.79,-4.02 -18.03,-4.34 -28.23,-5.01 -10.2,-0.67 -119.58,-7.85 -178.97,10.37 -31.44,9.65 -66.57,26.67 -103.06,60.94 -33.94,31.89 -58.77,71.6 -66.88,88.7 -6.06,12.76 -4.1,25.33 1.64,26.08 5.74,0.76 22.76,-27.65 35.18,-40.17 101.72,-102.6 192.6,-112.73 324.24,-126.88zm19.29 98.23c-5.77,1.16 -84.44,15.82 -155.69,51.69 -58.34,29.37 -103.45,69.02 -111.46,76.43 -8.01,7.41 -20.6,16.28 -35.45,12.89 -8.8,-6.78 69.14,-81.53 130.62,-113.42 34.09,-17.69 93.29,-38.12 142.02,-39.49 16.22,-0.46 27.42,-1.5 29.75,10.77 0.07,0.38 0.14,0.75 0.21,1.13z"/>
    <g id="_2096600567104">
     <path id="Gray_x0020_Road_1" class="fil1" d="M528.33 394.69c-3.29,-16.75 18.53,-40.31 33.88,-31.31 17.64,10.34 -10.56,33.16 -33.88,31.31zm61.39 -68.53c22.79,-11.63 28.97,14.13 -0.13,27.32 -10.75,4.88 -21.68,6.01 -17.57,-9.28 2.72,-10.08 10.31,-14.27 17.7,-18.04zm51.62 -36.39c22.79,-9.84 28.31,15.5 -0.81,26.79 -29.92,11.6 -18.22,-18.58 0.81,-26.79zm33.29 -0.09c-2.61,-17.84 23.83,-39.17 36.18,-27.06 13.68,13.41 -17,31.17 -36.18,27.06zm54.41 -24.32c-5.07,-14.48 18.1,-31.39 37.13,-25.32 9.12,20.2 -22.15,31.58 -37.13,25.32zm94.47 -36.67c3.34,13.23 -1.1,16.53 -11.89,20.6 -7.66,2.89 -23.72,7.27 -28.3,-0.53 -5.09,-8.67 17.61,-30.17 40.19,-20.07zm16.55 11.29c1.11,-6.35 5.57,-13.9 12.93,-18.18 9.09,-5.27 25.65,-2.42 22.46,8.61 -3,6.12 -9.35,11.07 -18.79,13.74 -2.97,0.84 -12.28,0.18 -16.6,-4.17zm22.7 -51.02c10.7,-0.47 24.55,-6.92 16.08,-14.03 -4.79,-4.02 -18.03,-4.34 -28.23,-5.01 -10.2,-0.67 -119.58,-7.85 -178.97,10.37 -31.44,9.65 -66.57,26.67 -103.06,60.94 -33.94,31.89 -58.77,71.6 -66.88,88.7 -6.06,12.76 -4.1,25.33 1.64,26.08 5.74,0.76 22.76,-27.65 35.18,-40.17 101.72,-102.6 192.6,-112.73 324.24,-126.88zm19.29 98.23c-5.77,1.16 -84.44,15.82 -155.69,51.69 -58.34,29.37 -103.45,69.02 -111.46,76.43 -8.01,7.41 -20.6,16.28 -35.45,12.89 -8.8,-6.78 69.14,-81.53 130.62,-113.42 34.09,-17.69 93.29,-38.12 142.02,-39.49 16.22,-0.46 27.42,-1.5 29.75,10.77 0.07,0.38 0.14,0.75 0.21,1.13z"/>
     <path class="fil2 str1" d="M819.65 10.51c38.7,0 73.91,32.7 73.91,75.44l0 281.76c0,23.73 -8.24,38.59 -19.99,52.4 -10.82,12.7 -31.63,23.04 -51.54,23.04l-269.44 0c-38.15,0 -71.53,-32.85 -71.53,-68.78l0 -295.08c0,-35.76 35.48,-68.78 73.92,-68.78l264.67 0z"/>
    </g>
   </g>
   <g>
    <path id="Biege_x0020_Water" class="fil4" d="M128.09 823.02c14.6,-5.12 19,-26.4 43.97,-26.5 23.98,1.84 32.27,20.95 45.69,22.68 15.99,2.06 23.3,-17.57 43.55,-26.4 32.76,-16.5 58.54,58.97 96.65,6.59 13.24,-18.18 28.31,-19.7 44.58,-12.66 16.26,7.03 17.68,24.86 5.35,24.93 -12.33,0.06 -17.42,-15.83 -44.33,18.77 -15.65,20.13 -45.31,17.57 -62.51,2.15 -10.42,-9.34 -28.63,-20.68 -44.92,-7.04 -9.53,7.96 -16.4,18.34 -36.44,19.96 -20.97,1.24 -33.92,-25.46 -48.83,-23.91 -18.06,1.13 -26.13,22.93 -44.44,28.24 -21.11,4.56 -39.2,-12.56 -48.89,-22.97 -8.13,-8.73 -18.4,-16.27 -29.62,-6.13 -7.24,6.54 -16.55,15.11 -22.33,7.72 -8.16,-10.44 2.37,-22.86 8.37,-28.27 6.44,-5.81 13.16,-11.42 22.67,-11.61 28.71,-0.58 39.75,44.45 71.48,34.45zm-6.99 -51.41c17.35,-6 31.98,-31.23 47.57,-32.29 20.23,-0.2 30.28,24.02 49.52,28.9 21.36,-0.4 34.02,-29.01 56.01,-26.28 34,4.23 41.14,48.54 81.56,6.31 10.84,-11.32 24.88,-23.14 49.09,-6.35 24.84,17.24 10.04,24.36 3.93,25.97 -13.28,3.5 -23.22,-16.07 -36.47,-4.6 -23.61,20.44 -40.12,44.47 -70.74,18.9 -49.59,-40.18 -58.66,27.82 -91.41,12.07 -13.47,-6 -26.98,-29.54 -42.57,-25.77 -14.05,4.35 -24.48,18.58 -38.2,26.47 -27.03,15.57 -49.29,-27.75 -72.46,-29.79 -9.75,-0.85 -26.52,14.02 -31.47,7.58 -10.1,-13.14 15.66,-35.65 27.37,-35.18 19.07,0.78 30.94,15.35 45.02,25.74 9.2,6.8 13.43,11.71 23.25,8.32zm-25.57 -59.78c27.63,24.23 41.51,-17.06 69.55,-19.07 30.88,0.56 48.87,40.5 68.04,14.34 16.07,-14.47 28.28,-27.2 56.27,-9.07 24.1,15.62 29.6,22.18 58.05,-2.07 20.57,-17.53 35.25,-16.03 54.61,-4.01 6.62,4.11 19.36,17.67 12,23.11 -21.33,15.75 -21,-29.2 -64.46,11.48 -40.33,37.76 -63.49,-20.09 -90.95,-8.19 -13.67,5.54 -19.85,24.21 -41.29,26.2 -13.75,1.29 -25.88,-24.76 -49.78,-26.22 -13.21,-1.36 -31.05,18.32 -39.81,24.06 -20.03,11.8 -40.73,-5.92 -57.25,-19.85 -24.95,-21.03 -22.31,-1.37 -44.53,0.06 -10.34,0.66 -2.25,-23.86 12.82,-30.5 20.63,-9.08 43.22,7.89 56.73,19.73zm-85.02 -144.76l0 277.33c0,43.66 35.46,77.65 69.15,77.65l274.21 0c37.65,0 71.53,-33.56 71.53,-68.78l0 -297.3c0,-15.47 -13.34,-37.57 -22.25,-45.86 -11.93,-11.1 -33.59,-20.7 -51.67,-20.7l-264.67 0c-44.62,0 -76.3,35.53 -76.3,77.66z"/>
    <g id="_2096600567392">
     <path id="Biege_x0020_Water_2" class="fil1" d="M128.09 823.02c14.6,-5.12 19,-26.4 43.97,-26.5 23.98,1.84 32.27,20.95 45.69,22.68 15.99,2.06 23.3,-17.57 43.55,-26.4 32.76,-16.5 58.54,58.97 96.65,6.59 13.24,-18.18 28.31,-19.7 44.58,-12.66 16.26,7.03 17.68,24.86 5.35,24.93 -12.33,0.06 -17.42,-15.83 -44.33,18.77 -15.65,20.13 -45.31,17.57 -62.51,2.15 -10.42,-9.34 -28.63,-20.68 -44.92,-7.04 -9.53,7.96 -16.4,18.34 -36.44,19.96 -20.97,1.24 -33.92,-25.46 -48.83,-23.91 -18.06,1.13 -26.13,22.93 -44.44,28.24 -21.11,4.56 -39.2,-12.56 -48.89,-22.97 -8.13,-8.73 -18.4,-16.27 -29.62,-6.13 -7.24,6.54 -16.55,15.11 -22.33,7.72 -8.16,-10.44 2.37,-22.86 8.37,-28.27 6.44,-5.81 13.16,-11.42 22.67,-11.61 28.71,-0.58 39.75,44.45 71.48,34.45zm-6.99 -51.41c17.35,-6 31.98,-31.23 47.57,-32.29 20.23,-0.2 30.28,24.02 49.52,28.9 21.36,-0.4 34.02,-29.01 56.01,-26.28 34,4.23 41.14,48.54 81.56,6.31 10.84,-11.32 24.88,-23.14 49.09,-6.35 24.84,17.24 10.04,24.36 3.93,25.97 -13.28,3.5 -23.22,-16.07 -36.47,-4.6 -23.61,20.44 -40.12,44.47 -70.74,18.9 -49.6,-40.18 -58.66,27.82 -91.41,12.07 -13.47,-6 -26.97,-29.54 -42.57,-25.77 -14.05,4.35 -24.48,18.58 -38.2,26.47 -27.03,15.57 -49.29,-27.75 -72.46,-29.79 -9.75,-0.85 -26.52,14.02 -31.47,7.58 -10.1,-13.14 15.66,-35.65 27.37,-35.18 19.07,0.78 30.94,15.35 45.02,25.74 9.2,6.8 13.43,11.71 23.25,8.32zm-25.57 -59.78c27.63,24.23 41.51,-17.06 69.55,-19.07 30.88,0.56 48.87,40.5 68.04,14.34 16.07,-14.47 28.28,-27.2 56.27,-9.07 24.1,15.62 29.6,22.18 58.05,-2.07 20.57,-17.53 35.25,-16.03 54.61,-4.01 6.62,4.11 19.36,17.67 12,23.11 -21.33,15.75 -21,-29.2 -64.46,11.48 -40.33,37.76 -63.49,-20.09 -90.95,-8.19 -13.67,5.54 -19.85,24.21 -41.29,26.2 -13.75,1.29 -25.88,-24.76 -49.78,-26.22 -13.21,-1.36 -31.05,18.32 -39.81,24.06 -20.03,11.8 -40.73,-5.92 -57.25,-19.85 -24.95,-21.03 -22.31,-1.37 -44.53,0.06 -10.34,0.66 -2.25,-23.86 12.82,-30.5 20.63,-9.08 43.22,7.89 56.73,19.73z"/>
     <path class="fil2 str2" d="M403.15 510.11c8.91,8.29 22.25,30.39 22.25,45.86l0 297.3c0,35.22 -33.88,68.78 -71.53,68.78l-274.21 0c-33.69,0 -69.15,-33.99 -69.15,-77.65l0 -277.33c0,-42.13 31.68,-77.66 76.3,-77.66l264.67 0c18.08,0 39.74,9.6 51.67,20.7z"/>
    </g>
   </g>
   <g>
    <path id="Brown_x0020_House" class="fil5" d="M545.66 729.66c-2.42,-0.14 -4.34,-7.91 -2.78,-11.71 1.81,-4.44 14.88,-14.66 32.99,-26.73l126.88 -84.62c22.34,-15.79 29.3,-27.63 44.45,-18.07 34.25,28.84 70.42,54.03 105.54,81.55 8.84,6.93 20.89,15.17 28.67,22.69 7.11,6.86 0.76,13.61 -11.67,11.95 -10.99,-1.47 -40.35,-26.71 -51.2,-34.57 -22.92,-16.59 -45.08,-32.26 -66.6,-48.39 -2.42,-1.81 -12.45,-11.15 -15.02,-11.33 -6.07,0.49 -99.53,60.47 -121.27,76 -20.74,14.82 -43.96,23.2 -35.44,25.45 32,-0.36 64.62,-5.67 66.35,-1.58 1.74,4.1 1.88,79.33 2.11,99.57 -0.56,27.56 0.45,54.61 -1.11,83.66 -0.26,4.75 -2.25,11.88 -6.47,15.59 -2.93,2.55 -10.48,4.26 -14.63,0.63 -1.75,-1.54 -1.46,-13.44 -1.45,-19.68 0.08,-52.92 -0.36,-148.61 -0.35,-159.16 0.45,-5.93 -41.93,0.94 -79,-1.25zm-64.6 -175.9l0 306.17c0,25.77 31.97,62.12 71.53,62.12l269.44 0c36.8,0 71.53,-32.32 71.53,-66.56l0 -299.52c0,-35.03 -36.06,-66.56 -73.92,-66.56l-264.66 0c-20.79,0 -39.5,9.73 -50.73,19.37 -9.76,8.39 -23.19,28.45 -23.19,44.98z"/>
    <g id="_2096600563936">
     <path id="Brown_x0020_House_3" class="fil1" d="M545.66 729.66c-2.42,-0.14 -4.34,-7.91 -2.78,-11.71 1.82,-4.44 14.88,-14.66 32.99,-26.73l126.88 -84.62c22.34,-15.79 29.3,-27.63 44.45,-18.07 34.25,28.84 70.42,54.03 105.54,81.55 8.84,6.93 20.88,15.17 28.67,22.69 7.11,6.86 0.76,13.61 -11.67,11.95 -10.99,-1.47 -40.35,-26.71 -51.2,-34.57 -22.92,-16.59 -45.08,-32.26 -66.6,-48.39 -2.42,-1.81 -12.45,-11.15 -15.02,-11.33 -6.07,0.49 -99.53,60.46 -121.27,76 -20.74,14.82 -43.96,23.2 -35.44,25.45 32,-0.36 64.62,-5.67 66.35,-1.58 1.74,4.1 1.88,79.33 2.11,99.57 -0.56,27.56 0.44,54.61 -1.11,83.66 -0.26,4.75 -2.25,11.88 -6.47,15.59 -2.93,2.55 -10.48,4.26 -14.63,0.63 -1.75,-1.54 -1.46,-13.44 -1.45,-19.68 0.08,-52.92 -0.36,-148.61 -0.35,-159.16 0.45,-5.93 -41.93,0.94 -79,-1.25z"/>
     <path class="fil2 str3" d="M819.64 489.41c37.86,0 73.92,31.53 73.92,66.56l0 299.52c0,34.24 -34.73,66.56 -71.53,66.56l-269.44 0c-39.56,0 -71.53,-36.35 -71.53,-62.12l0 -306.17c0,-16.53 13.43,-36.59 23.19,-44.98 11.23,-9.64 29.94,-19.37 50.73,-19.37l264.66 0z"/>
    </g>
   </g>
  </g>
 </g>
</svg>
